<svg xmlns="http://www.w3.org/2000/svg" xmlns:xlink="http://www.w3.org/1999/xlink" width="138" zoomAndPan="magnify" viewBox="0 0 104 30" height="40" preserveAspectRatio="xMidYMid meet" version="1.0"><defs><g/><clipPath id="981cfe1b71"><path d="M 7.523438 1.144531 L 34.265625 1.144531 L 34.265625 27.886719 L 7.523438 27.886719 Z M 7.523438 1.144531 " clip-rule="nonzero"/></clipPath><clipPath id="6fb48d9058"><path d="M 20.894531 1.144531 C 13.511719 1.144531 7.523438 7.132812 7.523438 14.515625 C 7.523438 21.902344 13.511719 27.886719 20.894531 27.886719 C 28.277344 27.886719 34.265625 21.902344 34.265625 14.515625 C 34.265625 7.132812 28.277344 1.144531 20.894531 1.144531 Z M 20.894531 1.144531 " clip-rule="nonzero"/></clipPath><clipPath id="242e9acede"><path d="M 9.003906 2.625 L 32.957031 2.625 L 32.957031 26.578125 L 9.003906 26.578125 Z M 9.003906 2.625 " clip-rule="nonzero"/></clipPath><clipPath id="b8ed8af70f"><path d="M 9.003906 9 L 32 9 L 32 25 L 9.003906 25 Z M 9.003906 9 " clip-rule="nonzero"/></clipPath></defs><g clip-path="url(#981cfe1b71)"><g clip-path="url(#6fb48d9058)"><path fill="#476cf6" d="M 7.523438 1.144531 L 34.265625 1.144531 L 34.265625 27.886719 L 7.523438 27.886719 Z M 7.523438 1.144531 " fill-opacity="1" fill-rule="nonzero"/></g></g><g clip-path="url(#242e9acede)"><path fill="#ffffff" d="M 20.890625 3.839844 C 15.003906 3.839844 10.21875 8.625 10.21875 14.511719 C 10.21875 20.394531 15.003906 25.183594 20.890625 25.183594 C 26.773438 25.183594 31.5625 20.394531 31.5625 14.511719 C 31.5625 8.625 26.773438 3.839844 20.890625 3.839844 Z M 20.890625 26.394531 C 17.714844 26.394531 14.730469 25.160156 12.484375 22.914062 C 10.242188 20.671875 9.003906 17.683594 9.003906 14.511719 C 9.003906 11.335938 10.242188 8.351562 12.484375 6.109375 C 14.730469 3.863281 17.714844 2.625 20.890625 2.625 C 24.0625 2.625 27.046875 3.863281 29.292969 6.109375 C 31.539062 8.351562 32.773438 11.335938 32.773438 14.511719 C 32.773438 17.683594 31.539062 20.671875 29.292969 22.914062 C 27.046875 25.160156 24.0625 26.394531 20.890625 26.394531 " fill-opacity="1" fill-rule="nonzero"/></g><path fill="#ffffff" d="M 20.890625 15.484375 L 13.398438 6.058594 L 14.347656 5.304688 L 20.890625 13.535156 L 27.429688 5.304688 L 28.378906 6.058594 L 20.890625 15.484375 " fill-opacity="1" fill-rule="nonzero"/><g clip-path="url(#b8ed8af70f)"><path fill="#ffffff" d="M 20.890625 24.316406 L 9.890625 10.472656 L 10.84375 9.71875 L 20.890625 22.367188 L 30.9375 9.71875 L 31.886719 10.472656 L 20.890625 24.316406 " fill-opacity="1" fill-rule="nonzero"/></g><path fill="#ffffff" d="M 12.972656 21.898438 L 11.761719 21.898438 L 11.761719 12.613281 L 12.972656 12.613281 L 12.972656 21.898438 " fill-opacity="1" fill-rule="nonzero"/><path fill="#ffffff" d="M 15.863281 24.285156 L 14.652344 24.285156 L 14.652344 16.253906 L 15.863281 16.253906 L 15.863281 24.285156 " fill-opacity="1" fill-rule="nonzero"/><path fill="#ffffff" d="M 18.945312 25.398438 L 17.792969 25.398438 L 17.792969 20.164062 L 18.945312 20.164062 L 18.945312 25.398438 " fill-opacity="1" fill-rule="nonzero"/><path fill="#ffffff" d="M 29.996094 21.898438 L 28.78125 21.898438 L 28.78125 12.613281 L 29.996094 12.613281 L 29.996094 21.898438 " fill-opacity="1" fill-rule="nonzero"/><path fill="#ffffff" d="M 27.105469 24.285156 L 25.890625 24.285156 L 25.890625 16.253906 L 27.105469 16.253906 L 27.105469 24.285156 " fill-opacity="1" fill-rule="nonzero"/><path fill="#ffffff" d="M 23.964844 25.398438 L 22.8125 25.398438 L 22.8125 20.164062 L 23.964844 20.164062 L 23.964844 25.398438 " fill-opacity="1" fill-rule="nonzero"/><path fill="#ffffff" d="M 21.464844 25.398438 L 20.3125 25.398438 L 20.3125 22.78125 L 21.464844 22.78125 L 21.464844 25.398438 " fill-opacity="1" fill-rule="nonzero"/><path fill="#ffffff" d="M 20.890625 19.929688 L 11.527344 7.949219 L 12.4375 7.238281 L 20.890625 18.054688 L 29.34375 7.238281 L 30.25 7.949219 L 20.890625 19.929688 " fill-opacity="1" fill-rule="nonzero"/><g fill="#ffffff" fill-opacity="1"><g transform="translate(40.798047, 17.746484)"><g><path d="M 12.125 0 L 10.125 0 L 9.234375 -5.90625 L 6.53125 -0.015625 L 6.0625 -0.015625 L 3.359375 -5.90625 L 2.46875 0 L 0.46875 0 L 1.890625 -9.046875 L 3.84375 -9.046875 L 6.296875 -3.5 L 8.75 -9.046875 L 10.71875 -9.046875 Z M 12.125 0 "/></g></g></g><g fill="#ffffff" fill-opacity="1"><g transform="translate(53.396409, 17.746484)"><g><path d="M 7.671875 -3.515625 C 7.671875 -3.335938 7.660156 -3.148438 7.640625 -2.953125 L 2.359375 -2.953125 C 2.441406 -2.484375 2.632812 -2.117188 2.9375 -1.859375 C 3.238281 -1.609375 3.617188 -1.484375 4.078125 -1.484375 C 4.398438 -1.484375 4.691406 -1.550781 4.953125 -1.6875 C 5.210938 -1.832031 5.410156 -2.03125 5.546875 -2.28125 L 7.53125 -2.28125 C 7.269531 -1.53125 6.828125 -0.929688 6.203125 -0.484375 C 5.585938 -0.0351562 4.878906 0.1875 4.078125 0.1875 C 3.378906 0.1875 2.753906 0.0234375 2.203125 -0.296875 C 1.660156 -0.617188 1.234375 -1.054688 0.921875 -1.609375 C 0.609375 -2.160156 0.453125 -2.785156 0.453125 -3.484375 C 0.453125 -4.179688 0.609375 -4.804688 0.921875 -5.359375 C 1.234375 -5.921875 1.660156 -6.363281 2.203125 -6.6875 C 2.753906 -7.007812 3.378906 -7.171875 4.078125 -7.171875 C 4.785156 -7.171875 5.410156 -7.003906 5.953125 -6.671875 C 6.492188 -6.335938 6.914062 -5.894531 7.21875 -5.34375 C 7.519531 -4.789062 7.671875 -4.179688 7.671875 -3.515625 Z M 4.078125 -5.5625 C 3.648438 -5.5625 3.289062 -5.445312 3 -5.21875 C 2.71875 -4.988281 2.523438 -4.664062 2.421875 -4.25 L 5.78125 -4.25 C 5.507812 -5.125 4.941406 -5.5625 4.078125 -5.5625 Z M 4.078125 -5.5625 "/></g></g></g><g fill="#ffffff" fill-opacity="1"><g transform="translate(61.511046, 17.746484)"><g><path d="M 4.3125 -1.6875 L 5.171875 -1.6875 L 5.171875 0 L 3.84375 0 C 3.070312 0 2.460938 -0.21875 2.015625 -0.65625 C 1.578125 -1.101562 1.359375 -1.71875 1.359375 -2.5 L 1.359375 -5.46875 L 0.09375 -5.46875 L 0.09375 -5.859375 L 2.859375 -8.796875 L 3.203125 -8.796875 L 3.203125 -6.984375 L 5.125 -6.984375 L 5.125 -5.46875 L 3.25 -5.46875 L 3.25 -2.734375 C 3.25 -2.398438 3.335938 -2.140625 3.515625 -1.953125 C 3.703125 -1.773438 3.96875 -1.6875 4.3125 -1.6875 Z M 4.3125 -1.6875 "/></g></g></g><g fill="#ffffff" fill-opacity="1"><g transform="translate(67.067248, 17.746484)"><g><path d="M 6.609375 -6.984375 L 8.015625 -6.984375 L 8.015625 -0.015625 L 6.53125 -0.015625 L 6.375 -0.640625 C 6.070312 -0.378906 5.726562 -0.175781 5.34375 -0.03125 C 4.957031 0.113281 4.546875 0.1875 4.109375 0.1875 C 3.410156 0.1875 2.785156 0.0234375 2.234375 -0.296875 C 1.679688 -0.617188 1.242188 -1.054688 0.921875 -1.609375 C 0.609375 -2.160156 0.453125 -2.789062 0.453125 -3.5 C 0.453125 -4.195312 0.609375 -4.820312 0.921875 -5.375 C 1.242188 -5.9375 1.679688 -6.375 2.234375 -6.6875 C 2.785156 -7.007812 3.410156 -7.171875 4.109375 -7.171875 C 4.554688 -7.171875 4.972656 -7.09375 5.359375 -6.9375 C 5.742188 -6.789062 6.085938 -6.582031 6.390625 -6.3125 Z M 4.265625 -1.59375 C 4.628906 -1.59375 4.953125 -1.671875 5.234375 -1.828125 C 5.523438 -1.992188 5.75 -2.222656 5.90625 -2.515625 C 6.070312 -2.804688 6.15625 -3.132812 6.15625 -3.5 C 6.15625 -3.863281 6.070312 -4.1875 5.90625 -4.46875 C 5.75 -4.757812 5.523438 -4.988281 5.234375 -5.15625 C 4.953125 -5.332031 4.628906 -5.421875 4.265625 -5.421875 C 3.890625 -5.421875 3.5625 -5.332031 3.28125 -5.15625 C 3 -4.988281 2.773438 -4.757812 2.609375 -4.46875 C 2.441406 -4.1875 2.359375 -3.863281 2.359375 -3.5 C 2.359375 -3.132812 2.441406 -2.804688 2.609375 -2.515625 C 2.773438 -2.234375 3 -2.007812 3.28125 -1.84375 C 3.5625 -1.675781 3.890625 -1.59375 4.265625 -1.59375 Z M 4.265625 -1.59375 "/></g></g></g><g fill="#ffffff" fill-opacity="1"><g transform="translate(75.983013, 17.746484)"><g><path d="M 4.515625 -9.046875 C 5.117188 -9.046875 5.660156 -8.910156 6.140625 -8.640625 C 6.617188 -8.367188 7 -8 7.28125 -7.53125 C 7.570312 -7.0625 7.71875 -6.53125 7.71875 -5.9375 C 7.71875 -5.34375 7.578125 -4.804688 7.296875 -4.328125 C 7.015625 -3.859375 6.628906 -3.488281 6.140625 -3.21875 C 5.660156 -2.957031 5.117188 -2.828125 4.515625 -2.828125 L 3 -2.828125 L 3 0 L 1.03125 0 L 1.03125 -9.046875 Z M 4.4375 -4.640625 C 4.820312 -4.640625 5.128906 -4.757812 5.359375 -5 C 5.597656 -5.25 5.71875 -5.5625 5.71875 -5.9375 C 5.71875 -6.3125 5.597656 -6.617188 5.359375 -6.859375 C 5.128906 -7.109375 4.820312 -7.234375 4.4375 -7.234375 L 3 -7.234375 L 3 -4.640625 Z M 4.4375 -4.640625 "/></g></g></g><g fill="#ffffff" fill-opacity="1"><g transform="translate(84.020123, 17.746484)"><g><path d="M 0.90625 -7.90625 L 0.90625 -9.671875 L 2.796875 -9.671875 L 2.796875 -7.90625 Z M 0.90625 0 L 0.90625 -6.984375 L 2.796875 -6.984375 L 2.796875 0 Z M 0.90625 0 "/></g></g></g><g fill="#ffffff" fill-opacity="1"><g transform="translate(87.715643, 17.746484)"><g><path d="M 4.890625 -7.140625 C 5.679688 -7.140625 6.304688 -6.875 6.765625 -6.34375 C 7.222656 -5.820312 7.453125 -5.113281 7.453125 -4.21875 L 7.453125 0 L 5.5625 0 L 5.5625 -3.921875 C 5.5625 -4.960938 5.160156 -5.484375 4.359375 -5.484375 C 3.867188 -5.484375 3.484375 -5.320312 3.203125 -5 C 2.929688 -4.675781 2.796875 -4.234375 2.796875 -3.671875 L 2.796875 0 L 0.90625 0 L 0.90625 -6.984375 L 2.203125 -6.984375 L 2.578125 -6.109375 C 2.828125 -6.429688 3.15625 -6.679688 3.5625 -6.859375 C 3.96875 -7.046875 4.410156 -7.140625 4.890625 -7.140625 Z M 4.890625 -7.140625 "/></g></g></g></svg>